<?xml version="1.0" encoding="UTF-8"?>
<!DOCTYPE svg PUBLIC "-//W3C//DTD SVG 1.1//EN" "http://www.w3.org/Graphics/SVG/1.1/DTD/svg11.dtd">
<svg xmlns="http://www.w3.org/2000/svg" version="1.1" width="64px" height="64px" style="shape-rendering:geometricPrecision; text-rendering:geometricPrecision; image-rendering:optimizeQuality; fill-rule:evenodd; clip-rule:evenodd" xmlns:xlink="http://www.w3.org/1999/xlink">
<g><path style="opacity:0.805" fill="#23395e" d="M 26.5,-0.5 C 29.8333,-0.5 33.1667,-0.5 36.5,-0.5C 40.8541,1.85899 43.1875,5.52566 43.5,10.5C 46.3646,10.0548 48.8646,10.7215 51,12.5C 51.4988,16.4862 51.6655,20.4862 51.5,24.5C 58.3034,23.7348 60.3034,26.5681 57.5,33C 55.5273,33.4955 53.5273,33.6621 51.5,33.5C 51.5,34.5 51.5,35.5 51.5,36.5C 53.5273,36.3379 55.5273,36.5045 57.5,37C 58.8333,40 58.8333,43 57.5,46C 49.5966,46.8839 49.5966,48.0505 57.5,49.5C 60.3587,56.1267 58.3587,59.1267 51.5,58.5C 51.5,59.5 51.5,60.5 51.5,61.5C 54.8333,61.5 58.1667,61.5 61.5,61.5C 61.6666,48.8289 61.4999,36.1623 61,23.5C 58.8646,21.7215 56.3646,21.0548 53.5,21.5C 53.5,20.5 53.5,19.5 53.5,18.5C 57.0847,18.1524 60.418,18.819 63.5,20.5C 63.5,34.8333 63.5,49.1667 63.5,63.5C 42.1667,63.5 20.8333,63.5 -0.5,63.5C -0.5,49.1667 -0.5,34.8333 -0.5,20.5C 3.25759,18.7459 7.25759,18.0792 11.5,18.5C 10.5,12.1667 13.1667,9.5 19.5,10.5C 19.8125,5.52566 22.1459,1.85899 26.5,-0.5 Z M 27.5,2.5 C 28.2389,2.36899 28.9056,2.53566 29.5,3C 28.5939,4.69946 28.2606,6.5328 28.5,8.5C 26.2195,8.7463 24.2195,8.7463 22.5,8.5C 23.497,5.84501 25.1637,3.84501 27.5,2.5 Z M 33.5,3.5 C 36.9714,2.89693 39.3047,4.5636 40.5,8.5C 38.7805,8.7463 36.7805,8.7463 34.5,8.5C 34.7845,6.58533 34.4511,4.91866 33.5,3.5 Z M 30.5,9.5 C 33.8606,10.2032 34.1939,11.5365 31.5,13.5C 29.3576,12.5629 29.0243,11.2296 30.5,9.5 Z M 16.5,12.5 C 17.5,12.5 18.5,12.5 19.5,12.5C 21.9021,23.0352 28.2355,26.2019 38.5,22C 41.8922,19.7146 43.5589,16.548 43.5,12.5C 44.9305,12.4208 46.2638,12.7542 47.5,13.5C 48.4994,29.4861 48.8328,45.4861 48.5,61.5C 46.5,61.5 44.5,61.5 42.5,61.5C 41.9682,54.9406 42.6349,48.6073 44.5,42.5C 44.3918,41.5581 44.0585,40.7247 43.5,40C 35.5,39.3333 27.5,39.3333 19.5,40C 18.9415,40.7247 18.6082,41.5581 18.5,42.5C 20.0203,45.598 20.8537,48.9313 21,52.5C 21.414,52.9574 21.914,53.2907 22.5,53.5C 23.48,50.9135 23.8134,48.2469 23.5,45.5C 25.8333,45.5 28.1667,45.5 30.5,45.5C 30.5,50.8333 30.5,56.1667 30.5,61.5C 28.1667,61.5 25.8333,61.5 23.5,61.5C 23.8076,59.076 23.4742,56.7427 22.5,54.5C 21.914,54.7093 21.414,55.0426 21,55.5C 20.5045,57.4727 20.3379,59.4727 20.5,61.5C 18.5,61.5 16.5,61.5 14.5,61.5C 13.8712,44.9273 14.5379,28.594 16.5,12.5 Z M 22.5,13.5 C 24.3792,14.3414 26.3792,14.6747 28.5,14.5C 30.8258,21.0886 29.3258,22.0886 24,17.5C 23.2086,16.255 22.7086,14.9217 22.5,13.5 Z M 39.5,13.5 C 40.1031,16.9714 38.4364,19.3047 34.5,20.5C 34.2537,18.7805 34.2537,16.7805 34.5,14.5C 36.4147,14.7845 38.0813,14.4511 39.5,13.5 Z M 3.5,21.5 C 6.16667,21.5 8.83333,21.5 11.5,21.5C 11.5,22.5 11.5,23.5 11.5,24.5C 4.69657,23.7348 2.69657,26.5681 5.5,33C 7.4727,33.4955 9.4727,33.6621 11.5,33.5C 11.5,34.5 11.5,35.5 11.5,36.5C 9.4727,36.3379 7.4727,36.5045 5.5,37C 4.16667,40 4.16667,43 5.5,46C 13.4034,46.8839 13.4034,48.0505 5.5,49.5C 2.64126,56.1267 4.64126,59.1267 11.5,58.5C 11.5,59.5 11.5,60.5 11.5,61.5C 8.16667,61.5 4.83333,61.5 1.5,61.5C 1.33345,48.8289 1.50012,36.1623 2,23.5C 2.71719,22.9558 3.21719,22.2891 3.5,21.5 Z M 7.5,27.5 C 8.83333,27.5 10.1667,27.5 11.5,27.5C 11.5,28.8333 11.5,30.1667 11.5,31.5C 10.1667,31.5 8.83333,31.5 7.5,31.5C 7.5,30.1667 7.5,28.8333 7.5,27.5 Z M 51.5,27.5 C 52.8333,27.5 54.1667,27.5 55.5,27.5C 55.5,28.8333 55.5,30.1667 55.5,31.5C 54.1667,31.5 52.8333,31.5 51.5,31.5C 51.5,30.1667 51.5,28.8333 51.5,27.5 Z M 19.5,29.5 C 22.1667,29.5 24.8333,29.5 27.5,29.5C 27.5,30.8333 27.5,32.1667 27.5,33.5C 24.8333,33.5 22.1667,33.5 19.5,33.5C 19.5,32.1667 19.5,30.8333 19.5,29.5 Z M 35.5,29.5 C 38.1667,29.5 40.8333,29.5 43.5,29.5C 43.5,30.8333 43.5,32.1667 43.5,33.5C 40.8333,33.5 38.1667,33.5 35.5,33.5C 35.5,32.1667 35.5,30.8333 35.5,29.5 Z M 7.5,39.5 C 8.83333,39.5 10.1667,39.5 11.5,39.5C 11.5,40.8333 11.5,42.1667 11.5,43.5C 10.1667,43.5 8.83333,43.5 7.5,43.5C 7.5,42.1667 7.5,40.8333 7.5,39.5 Z M 51.5,39.5 C 52.8333,39.5 54.1667,39.5 55.5,39.5C 55.5,40.8333 55.5,42.1667 55.5,43.5C 54.1667,43.5 52.8333,43.5 51.5,43.5C 51.5,42.1667 51.5,40.8333 51.5,39.5 Z M 32.5,45.5 C 34.8333,45.5 37.1667,45.5 39.5,45.5C 39.5,50.8333 39.5,56.1667 39.5,61.5C 37.1667,61.5 34.8333,61.5 32.5,61.5C 32.5,56.1667 32.5,50.8333 32.5,45.5 Z M 7.5,51.5 C 8.83333,51.5 10.1667,51.5 11.5,51.5C 11.5,52.8333 11.5,54.1667 11.5,55.5C 10.1667,55.5 8.83333,55.5 7.5,55.5C 7.5,54.1667 7.5,52.8333 7.5,51.5 Z M 51.5,51.5 C 52.8333,51.5 54.1667,51.5 55.5,51.5C 55.5,52.8333 55.5,54.1667 55.5,55.5C 54.1667,55.5 52.8333,55.5 51.5,55.5C 51.5,54.1667 51.5,52.8333 51.5,51.5 Z"/></g>
<g><path style="opacity:0.815" fill="#23385d" d="M 18.5,26.5 C 22.226,26.1774 25.8927,26.5108 29.5,27.5C 31.0623,30.6136 30.7289,33.447 28.5,36C 25.1667,36.6667 21.8333,36.6667 18.5,36C 15.8881,32.8359 15.8881,29.6693 18.5,26.5 Z M 19.5,29.5 C 19.5,30.8333 19.5,32.1667 19.5,33.5C 22.1667,33.5 24.8333,33.5 27.5,33.5C 27.5,32.1667 27.5,30.8333 27.5,29.5C 24.8333,29.5 22.1667,29.5 19.5,29.5 Z"/></g>
<g><path style="opacity:0.823" fill="#22385c" d="M 33.5,26.5 C 37.1817,26.3347 40.8484,26.5014 44.5,27C 47.1667,30 47.1667,33 44.5,36C 34.8253,39.1454 31.1586,35.9787 33.5,26.5 Z M 35.5,29.5 C 35.5,30.8333 35.5,32.1667 35.5,33.5C 38.1667,33.5 40.8333,33.5 43.5,33.5C 43.5,32.1667 43.5,30.8333 43.5,29.5C 40.8333,29.5 38.1667,29.5 35.5,29.5 Z"/></g>
<g><path style="opacity:0.615" fill="#22395e" d="M 26.5,51.5 C 27.5,51.5 28.5,51.5 29.5,51.5C 29.5,52.8333 29.5,54.1667 29.5,55.5C 28.5,55.5 27.5,55.5 26.5,55.5C 26.5,54.1667 26.5,52.8333 26.5,51.5 Z"/></g>
<g><path style="opacity:0.615" fill="#22395e" d="M 33.5,51.5 C 34.5,51.5 35.5,51.5 36.5,51.5C 36.5,52.8333 36.5,54.1667 36.5,55.5C 35.5,55.5 34.5,55.5 33.5,55.5C 33.5,54.1667 33.5,52.8333 33.5,51.5 Z"/></g>
</svg>
