<?xml version="1.0" encoding="UTF-8"?>
<!DOCTYPE svg PUBLIC "-//W3C//DTD SVG 1.1//EN" "http://www.w3.org/Graphics/SVG/1.1/DTD/svg11.dtd">
<svg xmlns="http://www.w3.org/2000/svg" version="1.1" width="64px" height="64px" style="shape-rendering:geometricPrecision; text-rendering:geometricPrecision; image-rendering:optimizeQuality; fill-rule:evenodd; clip-rule:evenodd" xmlns:xlink="http://www.w3.org/1999/xlink">
<g><path style="opacity:0.855" fill="#557963" d="M 10.5,2.5 C 10.19,3.73834 9.68999,3.73834 9,2.5C 8.53566,3.09442 8.36899,3.76109 8.5,4.5C 8.15829,5.33825 7.49162,5.67158 6.5,5.5C 6.5,4.83333 6.5,4.16667 6.5,3.5C 7.53825,1.48052 8.87158,1.14719 10.5,2.5 Z"/></g>
<g><path style="opacity:0.612" fill="#765c55" d="M 55.5,1.5 C 55.4431,2.60895 55.1098,3.60895 54.5,4.5C 53.8333,4.5 53.5,4.83333 53.5,5.5C 52.8333,5.5 52.5,5.16667 52.5,4.5C 52.5,3.83333 52.1667,3.5 51.5,3.5C 52.3149,2.16337 53.4815,1.16337 55,0.5C 55.3988,0.728446 55.5654,1.06178 55.5,1.5 Z"/></g>
<g><path style="opacity:0.804" fill="#8b69b1" d="M 55.5,1.5 C 56.1667,1.5 56.5,1.83333 56.5,2.5C 57.1667,4.16667 57.8333,5.83333 58.5,7.5C 57.1667,6.5 55.8333,5.5 54.5,4.5C 55.1098,3.60895 55.4431,2.60895 55.5,1.5 Z"/></g>
<g><path style="opacity:0.773" fill="#6e3e70" d="M 6.5,3.5 C 6.5,4.16667 6.5,4.83333 6.5,5.5C 6.16667,6.5 5.5,7.16667 4.5,7.5C 4.67158,6.50838 4.33825,5.84171 3.5,5.5C 3.97306,4.09368 4.97306,3.42702 6.5,3.5 Z"/></g>
<g><path style="opacity:0.988" fill="#6a5082" d="M 10.5,2.5 C 11.593,4.34916 12.9263,6.01583 14.5,7.5C 14.5569,8.60895 14.8902,9.60895 15.5,10.5C 13.6203,10.7709 12.287,10.1042 11.5,8.5C 11.9382,8.56544 12.2716,8.39877 12.5,8C 11.9498,5.8424 10.9498,5.3424 9.5,6.5C 9.67158,5.50838 9.33825,4.84171 8.5,4.5C 8.36899,3.76109 8.53566,3.09442 9,2.5C 9.68999,3.73834 10.19,3.73834 10.5,2.5 Z"/></g>
<g><path style="opacity:1" fill="#3f328a" d="M 52.5,4.5 C 52.5,5.16667 52.8333,5.5 53.5,5.5C 54.8333,6.16667 55.8333,7.16667 56.5,8.5C 54.8333,7.83333 53.1667,7.16667 51.5,6.5C 51.3284,5.50838 51.6618,4.84171 52.5,4.5 Z"/></g>
<g><path style="opacity:0.584" fill="#5da093" d="M 51.5,3.5 C 52.1667,3.5 52.5,3.83333 52.5,4.5C 51.6618,4.84171 51.3284,5.50838 51.5,6.5C 51.5,6.83333 51.5,7.16667 51.5,7.5C 51.1583,8.33825 50.4916,8.67158 49.5,8.5C 48.6618,8.15829 48.3284,7.49162 48.5,6.5C 49.7281,5.69354 50.7281,4.69354 51.5,3.5 Z"/></g>
<g><path style="opacity:0.859" fill="#a0835a" d="M 56.5,2.5 C 58.1667,3.5 59.5,4.83333 60.5,6.5C 60.1583,7.33825 59.4916,7.67158 58.5,7.5C 57.8333,5.83333 57.1667,4.16667 56.5,2.5 Z"/></g>
<g><path style="opacity:0.576" fill="#857176" d="M 3.5,5.5 C 4.33825,5.84171 4.67158,6.50838 4.5,7.5C 4.5,7.83333 4.5,8.16667 4.5,8.5C 4.5,9.5 4.5,10.5 4.5,11.5C 1.52152,9.65225 1.18818,7.65225 3.5,5.5 Z"/></g>
<g><path style="opacity:1" fill="#402386" d="M 11.5,8.5 C 10.391,8.55688 9.39105,8.89022 8.5,9.5C 8.5,9.16667 8.5,8.83333 8.5,8.5C 8.5,7.83333 8.16667,7.5 7.5,7.5C 7.84171,6.66175 8.50838,6.32842 9.5,6.5C 10.9498,5.3424 11.9498,5.8424 12.5,8C 12.2716,8.39877 11.9382,8.56544 11.5,8.5 Z"/></g>
<g><path style="opacity:0.706" fill="#927b46" d="M 51.5,7.5 C 51.5,7.16667 51.5,6.83333 51.5,6.5C 53.1667,7.16667 54.8333,7.83333 56.5,8.5C 56.5,8.83333 56.5,9.16667 56.5,9.5C 55.8333,9.5 55.1667,9.5 54.5,9.5C 53.5,8.83333 52.5,8.16667 51.5,7.5 Z"/></g>
<g><path style="opacity:0.702" fill="#80908e" d="M 14.5,7.5 C 16.0418,8.30071 17.7085,8.63404 19.5,8.5C 19.0825,9.22158 18.4158,9.72158 17.5,10C 18.1712,10.9862 18.1712,12.1529 17.5,13.5C 16.6618,13.1583 16.3284,12.4916 16.5,11.5C 16.5,10.8333 16.1667,10.5 15.5,10.5C 14.8902,9.60895 14.5569,8.60895 14.5,7.5 Z"/></g>
<g><path style="opacity:0.663" fill="#77535b" d="M 46.5,7.5 C 46.9382,7.43456 47.2716,7.60123 47.5,8C 44.9028,8.77917 44.9028,9.27917 47.5,9.5C 46.3065,10.2719 45.3065,11.2719 44.5,12.5C 42.0065,12.8693 41.3398,12.2027 42.5,10.5C 43.2623,8.73758 44.5956,7.73758 46.5,7.5 Z"/></g>
<g><path style="opacity:0.749" fill="#503b9d" d="M 46.5,7.5 C 46.8417,6.66175 47.5084,6.32842 48.5,6.5C 48.3284,7.49162 48.6618,8.15829 49.5,8.5C 49.1583,9.33825 48.4916,9.67158 47.5,9.5C 44.9028,9.27917 44.9028,8.77917 47.5,8C 47.2716,7.60123 46.9382,7.43456 46.5,7.5 Z"/></g>
<g><path style="opacity:0.784" fill="#637aa1" d="M 60.5,6.5 C 61.6633,9.70642 60.33,11.3731 56.5,11.5C 56.5,10.8333 56.5,10.1667 56.5,9.5C 56.5,9.16667 56.5,8.83333 56.5,8.5C 57.4916,8.67158 58.1583,8.33825 58.5,7.5C 59.4916,7.67158 60.1583,7.33825 60.5,6.5 Z"/></g>
<g><path style="opacity:0.58" fill="#5a6b81" d="M 21.5,9.5 C 21.8333,9.5 22.1667,9.5 22.5,9.5C 22.5,10.1667 22.5,10.8333 22.5,11.5C 22.1583,12.3382 21.4916,12.6716 20.5,12.5C 19.2848,11.221 19.6182,10.221 21.5,9.5 Z"/></g>
<g><path style="opacity:0.933" fill="#8e6691" d="M 26.5,14.5 C 26.0679,13.2905 25.4013,12.2905 24.5,11.5C 23.8333,11.5 23.1667,11.5 22.5,11.5C 22.5,10.8333 22.5,10.1667 22.5,9.5C 23.7082,8.21798 25.0416,8.21798 26.5,9.5C 27.7349,11.3163 27.7349,12.983 26.5,14.5 Z"/></g>
<g><path style="opacity:0.055" fill="#83a3c2" d="M 40.5,10.5 C 39.0222,10.238 37.6888,10.5713 36.5,11.5C 36.6236,12.1067 36.9569,12.44 37.5,12.5C 37.5,12.8333 37.5,13.1667 37.5,13.5C 36.8333,13.5 36.1667,13.5 35.5,13.5C 35.5,12.1667 35.5,10.8333 35.5,9.5C 37.4147,9.21552 39.0813,9.54885 40.5,10.5 Z"/></g>
<g><path style="opacity:0.941" fill="#623d9a" d="M 54.5,10.5 C 54.5,10.1667 54.5,9.83333 54.5,9.5C 55.1667,9.5 55.8333,9.5 56.5,9.5C 56.5,10.1667 56.5,10.8333 56.5,11.5C 56.4431,12.609 56.1098,13.609 55.5,14.5C 55.1667,14.5 54.8333,14.5 54.5,14.5C 55.3543,12.965 55.3543,11.6316 54.5,10.5 Z"/></g>
<g><path style="opacity:0.753" fill="#6a8063" d="M 7.5,7.5 C 8.16667,7.5 8.5,7.83333 8.5,8.5C 7.89992,9.90018 6.89992,10.9002 5.5,11.5C 5.16667,11.5 4.83333,11.5 4.5,11.5C 4.5,10.5 4.5,9.5 4.5,8.5C 5.60895,8.44312 6.60895,8.10978 7.5,7.5 Z"/></g>
<g><path style="opacity:1" fill="#452c78" d="M 40.5,10.5 C 40.6716,11.4916 40.3382,12.1583 39.5,12.5C 38.8333,12.5 38.1667,12.5 37.5,12.5C 36.9569,12.44 36.6236,12.1067 36.5,11.5C 37.6888,10.5713 39.0222,10.238 40.5,10.5 Z"/></g>
<g><path style="opacity:1" fill="#49388c" d="M 8.5,8.5 C 8.5,8.83333 8.5,9.16667 8.5,9.5C 8.5,10.5 8.5,11.5 8.5,12.5C 7.83333,13.1667 7.16667,13.8333 6.5,14.5C 5.89022,13.609 5.55688,12.609 5.5,11.5C 6.89992,10.9002 7.89992,9.90018 8.5,8.5 Z"/></g>
<g><path style="opacity:1" fill="#582779" d="M 19.5,8.5 C 20.4916,8.32842 21.1583,8.66175 21.5,9.5C 19.6182,10.221 19.2848,11.221 20.5,12.5C 20.1583,13.3382 19.4916,13.6716 18.5,13.5C 18.1667,13.5 17.8333,13.5 17.5,13.5C 18.1712,12.1529 18.1712,10.9862 17.5,10C 18.4158,9.72158 19.0825,9.22158 19.5,8.5 Z"/></g>
<g><path style="opacity:0.569" fill="#8c7181" d="M 16.5,11.5 C 16.3284,12.4916 16.6618,13.1583 17.5,13.5C 17.8333,13.5 18.1667,13.5 18.5,13.5C 19.1667,14.5 19.8333,15.5 20.5,16.5C 20.7373,17.791 20.404,18.791 19.5,19.5C 18.8333,19.5 18.1667,19.5 17.5,19.5C 17.1667,18.1667 16.8333,16.8333 16.5,15.5C 15.3143,14.0387 15.3143,12.7054 16.5,11.5 Z"/></g>
<g><path style="opacity:0.8" fill="#716e7e" d="M 24.5,11.5 C 25.4013,12.2905 26.0679,13.2905 26.5,14.5C 25.0674,16.5184 25.4008,18.1851 27.5,19.5C 26.8333,19.8333 26.1667,20.1667 25.5,20.5C 24.2223,20.2178 23.2223,19.5511 22.5,18.5C 22.8782,16.079 23.5448,13.7457 24.5,11.5 Z"/></g>
<g><path style="opacity:0.776" fill="#8f6749" d="M 40.5,10.5 C 41.1667,10.5 41.8333,10.5 42.5,10.5C 41.3398,12.2027 42.0065,12.8693 44.5,12.5C 44.1667,13.1667 43.8333,13.8333 43.5,14.5C 42.8333,15.1667 42.1667,15.8333 41.5,16.5C 40.8333,16.5 40.1667,16.5 39.5,16.5C 39.5,15.1667 39.5,13.8333 39.5,12.5C 40.3382,12.1583 40.6716,11.4916 40.5,10.5 Z"/></g>
<g><path style="opacity:0.427" fill="#848199" d="M 44.5,12.5 C 46.1898,12.8564 47.1898,13.8564 47.5,15.5C 46.209,15.2627 45.209,15.596 44.5,16.5C 43.6618,16.1583 43.3284,15.4916 43.5,14.5C 43.8333,13.8333 44.1667,13.1667 44.5,12.5 Z"/></g>
<g><path style="opacity:0.847" fill="#7a987e" d="M 8.5,12.5 C 8.60357,14.7028 9.27024,16.7028 10.5,18.5C 10.1667,19.1667 9.83333,19.8333 9.5,20.5C 7.46095,19.089 6.46095,17.089 6.5,14.5C 7.16667,13.8333 7.83333,13.1667 8.5,12.5 Z"/></g>
<g><path style="opacity:0.741" fill="#909461" d="M 35.5,13.5 C 36.1667,13.5 36.8333,13.5 37.5,13.5C 37.1788,15.0481 36.1788,15.7148 34.5,15.5C 33.5084,15.6716 32.8417,15.3382 32.5,14.5C 33.209,13.596 34.209,13.2627 35.5,13.5 Z"/></g>
<g><path style="opacity:0.816" fill="#b169a8" d="M 32.5,14.5 C 32.8417,15.3382 33.5084,15.6716 34.5,15.5C 33.8902,16.391 33.5569,17.391 33.5,18.5C 32.7784,18.0825 32.2784,17.4158 32,16.5C 31.6012,16.7284 31.4346,17.0618 31.5,17.5C 31.1667,17.5 30.8333,17.5 30.5,17.5C 30.427,15.9731 31.0937,14.9731 32.5,14.5 Z"/></g>
<g><path style="opacity:0.631" fill="#936e99" d="M 44.5,16.5 C 45.209,15.596 46.209,15.2627 47.5,15.5C 48.1667,15.5 48.5,15.8333 48.5,16.5C 47.0337,17.347 46.2004,18.6803 46,20.5C 45.6012,20.2716 45.4346,19.9382 45.5,19.5C 45.0825,18.7784 44.4158,18.2784 43.5,18C 44.1667,17.6667 44.8333,17.3333 45.5,17C 45.2716,16.6012 44.9382,16.4346 44.5,16.5 Z"/></g>
<g><path style="opacity:1" fill="#51178a" d="M 33.5,18.5 C 33.8333,19.1667 34.1667,19.8333 34.5,20.5C 33.8333,20.8333 33.1667,21.1667 32.5,21.5C 32.1667,21.5 31.8333,21.5 31.5,21.5C 32.4054,20.2976 32.4054,18.9643 31.5,17.5C 31.4346,17.0618 31.6012,16.7284 32,16.5C 32.2784,17.4158 32.7784,18.0825 33.5,18.5 Z"/></g>
<g><path style="opacity:0.635" fill="#6e2d92" d="M 43.5,14.5 C 43.3284,15.4916 43.6618,16.1583 44.5,16.5C 44.9382,16.4346 45.2716,16.6012 45.5,17C 44.8333,17.3333 44.1667,17.6667 43.5,18C 44.4158,18.2784 45.0825,18.7784 45.5,19.5C 44.6618,19.8417 44.3284,20.5084 44.5,21.5C 43.5,21.5 42.5,21.5 41.5,21.5C 42.8333,19.8333 42.8333,18.1667 41.5,16.5C 42.1667,15.8333 42.8333,15.1667 43.5,14.5 Z"/></g>
<g><path style="opacity:1" fill="#725182" d="M 54.5,14.5 C 54.8333,14.5 55.1667,14.5 55.5,14.5C 55.5,15.8333 55.5,17.1667 55.5,18.5C 53.8102,18.8564 52.8102,19.8564 52.5,21.5C 52.1667,21.5 51.8333,21.5 51.5,21.5C 50.7281,20.3065 49.7281,19.3065 48.5,18.5C 48.5,17.8333 48.5,17.1667 48.5,16.5C 49.9613,15.3143 51.2946,15.3143 52.5,16.5C 52.56,17.0431 52.8933,17.3764 53.5,17.5C 54.3857,16.675 54.719,15.675 54.5,14.5 Z"/></g>
<g><path style="opacity:0.682" fill="#5b8997" d="M 54.5,10.5 C 55.3543,11.6316 55.3543,12.965 54.5,14.5C 54.719,15.675 54.3857,16.675 53.5,17.5C 52.8933,17.3764 52.56,17.0431 52.5,16.5C 53.2852,14.6264 53.9518,12.6264 54.5,10.5 Z"/></g>
<g><path style="opacity:0.239" fill="#84a1a1" d="M 16.5,15.5 C 16.8333,16.8333 17.1667,18.1667 17.5,19.5C 17.1667,19.5 16.8333,19.5 16.5,19.5C 15.391,19.5569 14.391,19.8902 13.5,20.5C 13.5,20.1667 13.5,19.8333 13.5,19.5C 13.1667,18.8333 12.8333,18.1667 12.5,17.5C 13.6049,16.3995 14.9382,15.7329 16.5,15.5 Z"/></g>
<g><path style="opacity:0.784" fill="#63d095" d="M 12.5,17.5 C 12.8333,18.1667 13.1667,18.8333 13.5,19.5C 11.9731,19.427 10.9731,20.0937 10.5,21.5C 9.83333,21.5 9.5,21.1667 9.5,20.5C 9.83333,19.8333 10.1667,19.1667 10.5,18.5C 11.1667,18.1667 11.8333,17.8333 12.5,17.5 Z"/></g>
<g><path style="opacity:0.039" fill="#5fa07b" d="M 20.5,16.5 C 21.1667,17.1667 21.8333,17.8333 22.5,18.5C 22.4431,19.609 22.1098,20.609 21.5,21.5C 20.8333,21.1667 20.1667,20.8333 19.5,20.5C 19.5,20.1667 19.5,19.8333 19.5,19.5C 20.404,18.791 20.7373,17.791 20.5,16.5 Z"/></g>
<g><path style="opacity:0.98" fill="#61927d" d="M 39.5,16.5 C 40.1667,16.5 40.8333,16.5 41.5,16.5C 42.8333,18.1667 42.8333,19.8333 41.5,21.5C 41.1667,21.5 40.8333,21.5 40.5,21.5C 39.6993,19.9582 39.366,18.2915 39.5,16.5 Z"/></g>
<g><path style="opacity:0.867" fill="#859977" d="M 48.5,16.5 C 48.5,17.1667 48.5,17.8333 48.5,18.5C 48.5,19.1667 48.5,19.8333 48.5,20.5C 48.1667,21.5 47.5,22.1667 46.5,22.5C 46.1583,21.6618 45.4916,21.3284 44.5,21.5C 44.3284,20.5084 44.6618,19.8417 45.5,19.5C 45.4346,19.9382 45.6012,20.2716 46,20.5C 46.2004,18.6803 47.0337,17.347 48.5,16.5 Z"/></g>
<g><path style="opacity:0.996" fill="#7244c7" d="M 55.5,18.5 C 55.5,19.5 55.5,20.5 55.5,21.5C 54.5,21.5 53.5,21.5 52.5,21.5C 52.8102,19.8564 53.8102,18.8564 55.5,18.5 Z"/></g>
<g><path style="opacity:0.443" fill="#2e4294" d="M 13.5,19.5 C 13.5,19.8333 13.5,20.1667 13.5,20.5C 12.8333,20.5 12.5,20.8333 12.5,21.5C 12.1667,22.1667 11.8333,22.8333 11.5,23.5C 10.6618,23.1583 10.3284,22.4916 10.5,21.5C 10.9731,20.0937 11.9731,19.427 13.5,19.5 Z"/></g>
<g><path style="opacity:0.816" fill="#8964ca" d="M 16.5,19.5 C 16.6107,20.1174 16.944,20.6174 17.5,21C 16.244,21.4169 15.5774,22.2502 15.5,23.5C 15.1667,23.5 14.8333,23.5 14.5,23.5C 14.5,22.1667 13.8333,21.5 12.5,21.5C 12.5,20.8333 12.8333,20.5 13.5,20.5C 14.391,19.8902 15.391,19.5569 16.5,19.5 Z"/></g>
<g><path style="opacity:1" fill="#5a298a" d="M 19.5,20.5 C 20.1667,20.8333 20.8333,21.1667 21.5,21.5C 21.3059,23.9118 19.9726,24.9118 17.5,24.5C 17.5,24.1667 17.5,23.8333 17.5,23.5C 19.2909,22.7721 19.9576,21.7721 19.5,20.5 Z"/></g>
<g><path style="opacity:0.933" fill="#9f9b9d" d="M 30.5,17.5 C 30.8333,17.5 31.1667,17.5 31.5,17.5C 32.4054,18.9643 32.4054,20.2976 31.5,21.5C 30.5,21.5 29.5,21.5 28.5,21.5C 27.209,21.7373 26.209,21.404 25.5,20.5C 26.1667,20.1667 26.8333,19.8333 27.5,19.5C 29.1788,19.7148 30.1788,19.0481 30.5,17.5 Z"/></g>
<g><path style="opacity:0.486" fill="#66b86c" d="M 48.5,18.5 C 49.7281,19.3065 50.7281,20.3065 51.5,21.5C 51.5,22.8333 51.5,24.1667 51.5,25.5C 50.8333,24.8333 50.1667,24.1667 49.5,23.5C 49.7373,22.209 49.404,21.209 48.5,20.5C 48.5,19.8333 48.5,19.1667 48.5,18.5 Z"/></g>
<g><path style="opacity:0.694" fill="#8f6e66" d="M 16.5,19.5 C 16.8333,19.5 17.1667,19.5 17.5,19.5C 18.1667,19.5 18.8333,19.5 19.5,19.5C 19.5,19.8333 19.5,20.1667 19.5,20.5C 19.9576,21.7721 19.2909,22.7721 17.5,23.5C 16.8333,23.5 16.1667,23.5 15.5,23.5C 15.5774,22.2502 16.244,21.4169 17.5,21C 16.944,20.6174 16.6107,20.1174 16.5,19.5 Z"/></g>
<g><path style="opacity:0.329" fill="#7c608f" d="M 40.5,21.5 C 40.8333,21.5 41.1667,21.5 41.5,21.5C 42.5,21.5 43.5,21.5 44.5,21.5C 45.4916,21.3284 46.1583,21.6618 46.5,22.5C 45.6618,22.8417 45.3284,23.5084 45.5,24.5C 44.3478,23.375 43.3478,23.375 42.5,24.5C 41.391,24.5569 40.391,24.8902 39.5,25.5C 38.8333,25.1667 38.1667,24.8333 37.5,24.5C 38.3065,23.2719 39.3065,22.2719 40.5,21.5 Z"/></g>
<g><path style="opacity:0.925" fill="#b5a253" d="M 12.5,21.5 C 13.8333,21.5 14.5,22.1667 14.5,23.5C 14.5,24.1667 14.1667,24.5 13.5,24.5C 12.5084,24.6716 11.8417,24.3382 11.5,23.5C 11.8333,22.8333 12.1667,22.1667 12.5,21.5 Z"/></g>
<g><path style="opacity:0.886" fill="#453156" d="M 28.5,21.5 C 29.5,21.5 30.5,21.5 31.5,21.5C 31.5,22.5 31.5,23.5 31.5,24.5C 30.391,24.4431 29.391,24.1098 28.5,23.5C 28.5,22.8333 28.5,22.1667 28.5,21.5 Z"/></g>
<g><path style="opacity:0.933" fill="#a2605f" d="M 14.5,23.5 C 14.8333,23.5 15.1667,23.5 15.5,23.5C 16.1667,23.5 16.8333,23.5 17.5,23.5C 17.5,23.8333 17.5,24.1667 17.5,24.5C 16.596,25.209 16.2627,26.209 16.5,27.5C 15.7784,27.0825 15.2784,26.4158 15,25.5C 14.6012,25.7284 14.4346,26.0618 14.5,26.5C 13.6618,26.1583 13.3284,25.4916 13.5,24.5C 14.1667,24.5 14.5,24.1667 14.5,23.5 Z"/></g>
<g><path style="opacity:0.671" fill="#809c74" d="M 34.5,20.5 C 36.6204,21.4033 36.9538,22.7367 35.5,24.5C 35.1583,25.3382 34.4916,25.6716 33.5,25.5C 33.5674,24.0413 33.2341,22.7079 32.5,21.5C 33.1667,21.1667 33.8333,20.8333 34.5,20.5 Z"/></g>
<g><path style="opacity:0.922" fill="#855aa3" d="M 28.5,23.5 C 29.391,24.1098 30.391,24.4431 31.5,24.5C 30.791,25.404 29.791,25.7373 28.5,25.5C 28.7678,27.099 28.4345,28.4324 27.5,29.5C 26.6618,29.1583 26.3284,28.4916 26.5,27.5C 24.8522,25.1278 25.5189,23.7944 28.5,23.5 Z"/></g>
<g><path style="opacity:1" fill="#2c218b" d="M 45.5,24.5 C 45.6716,25.4916 45.3382,26.1583 44.5,26.5C 43.5,26.1667 42.8333,25.5 42.5,24.5C 43.3478,23.375 44.3478,23.375 45.5,24.5 Z"/></g>
<g><path style="opacity:1" fill="#755399" d="M 35.5,24.5 C 36.1667,24.5 36.8333,24.5 37.5,24.5C 38.1667,24.8333 38.8333,25.1667 39.5,25.5C 39.0296,26.6935 38.0296,27.3601 36.5,27.5C 34.9704,27.3601 33.9704,26.6935 33.5,25.5C 34.4916,25.6716 35.1583,25.3382 35.5,24.5 Z"/></g>
<g><path style="opacity:0.871" fill="#6c559e" d="M 45.5,24.5 C 46.4013,25.2905 47.0679,26.2905 47.5,27.5C 47.5,28.1667 47.5,28.8333 47.5,29.5C 46.5,29.5 45.5,29.5 44.5,29.5C 44.5,28.5 44.5,27.5 44.5,26.5C 45.3382,26.1583 45.6716,25.4916 45.5,24.5 Z"/></g>
<g><path style="opacity:0.922" fill="#8d5b71" d="M 49.5,23.5 C 50.1667,24.1667 50.8333,24.8333 51.5,25.5C 50.7659,26.7079 50.4326,28.0413 50.5,29.5C 49.5,29.5 48.5,29.5 47.5,29.5C 47.5,28.8333 47.5,28.1667 47.5,27.5C 48.1667,26.1667 48.8333,24.8333 49.5,23.5 Z"/></g>
<g><path style="opacity:1" fill="#5b4f98" d="M 16.5,27.5 C 16.8333,27.5 17.1667,27.5 17.5,27.5C 17.5,28.8333 16.8333,29.5 15.5,29.5C 14.596,28.791 14.2627,27.791 14.5,26.5C 14.4346,26.0618 14.6012,25.7284 15,25.5C 15.2784,26.4158 15.7784,27.0825 16.5,27.5 Z"/></g>
<g><path style="opacity:0.384" fill="#733f88" d="M 18.5,27.5 C 18.56,26.9569 18.8933,26.6236 19.5,26.5C 20.9014,27.5207 22.2347,28.5207 23.5,29.5C 23.5,30.1667 23.5,30.8333 23.5,31.5C 23.1667,31.5 22.8333,31.5 22.5,31.5C 21.5,29.8333 20.1667,28.5 18.5,27.5 Z"/></g>
<g><path style="opacity:0.98" fill="#918a6f" d="M 17.5,27.5 C 17.8333,27.5 18.1667,27.5 18.5,27.5C 20.1667,28.5 21.5,29.8333 22.5,31.5C 20.2907,29.6123 17.9574,28.9456 15.5,29.5C 16.8333,29.5 17.5,28.8333 17.5,27.5 Z"/></g>
<g><path style="opacity:0.875" fill="#7b8f71" d="M 26.5,27.5 C 26.3284,28.4916 26.6618,29.1583 27.5,29.5C 26.713,31.1042 25.3797,31.7709 23.5,31.5C 23.5,30.8333 23.5,30.1667 23.5,29.5C 24.5,28.8333 25.5,28.1667 26.5,27.5 Z"/></g>
<g><path style="opacity:0.702" fill="#646092" d="M 44.5,32.5 C 44.1667,32.5 43.8333,32.5 43.5,32.5C 42.1266,32.3433 40.7932,32.51 39.5,33C 40.056,33.3826 40.3893,33.8826 40.5,34.5C 39.8333,35.5 39.1667,36.5 38.5,37.5C 37.596,36.791 37.2627,35.791 37.5,34.5C 37.4142,33.5041 37.7476,32.6708 38.5,32C 40.7116,31.2109 42.7116,31.3775 44.5,32.5 Z"/></g>
<g><path style="opacity:1" fill="#312082" d="M 43.5,32.5 C 43.5,33.1667 43.5,33.8333 43.5,34.5C 42.5,34.5 41.5,34.5 40.5,34.5C 40.3893,33.8826 40.056,33.3826 39.5,33C 40.7932,32.51 42.1266,32.3433 43.5,32.5 Z"/></g>
<g><path style="opacity:0.141" fill="#825392" d="M 20.5,34.5 C 17.075,34.3668 16.7417,35.0335 19.5,36.5C 17.8564,36.8102 16.8564,37.8102 16.5,39.5C 15.5084,39.6716 14.8417,39.3382 14.5,38.5C 14.8693,36.5588 15.536,34.7255 16.5,33C 18.1398,32.6522 19.4732,33.1522 20.5,34.5 Z"/></g>
<g><path style="opacity:0.925" fill="#997454" d="M 43.5,32.5 C 43.8333,32.5 44.1667,32.5 44.5,32.5C 45.5,33.1667 46.5,33.8333 47.5,34.5C 47.5,34.8333 47.5,35.1667 47.5,35.5C 46.1667,35.1667 44.8333,34.8333 43.5,34.5C 43.5,33.8333 43.5,33.1667 43.5,32.5 Z"/></g>
<g><path style="opacity:0.976" fill="#4c609a" d="M 20.5,34.5 C 21.4916,34.3284 22.1583,34.6618 22.5,35.5C 21.609,36.1098 20.609,36.4431 19.5,36.5C 16.7417,35.0335 17.075,34.3668 20.5,34.5 Z"/></g>
<g><path style="opacity:0.988" fill="#6249ac" d="M 43.5,34.5 C 44.8333,34.8333 46.1667,35.1667 47.5,35.5C 47.5,35.8333 47.5,36.1667 47.5,36.5C 45.4098,37.7908 44.0764,37.1242 43.5,34.5 Z"/></g>
<g><path style="opacity:0.431" fill="#566054" d="M 22.5,35.5 C 22.0882,37.9726 23.0882,39.3059 25.5,39.5C 26.3382,39.8417 26.6716,40.5084 26.5,41.5C 26.1667,41.5 25.8333,41.5 25.5,41.5C 25.44,40.9569 25.1067,40.6236 24.5,40.5C 23.8182,41.2427 23.1515,41.9094 22.5,42.5C 22.1667,41.5 21.5,40.8333 20.5,40.5C 20.5,39.8333 20.1667,39.5 19.5,39.5C 19.5,38.5 19.5,37.5 19.5,36.5C 20.609,36.4431 21.609,36.1098 22.5,35.5 Z"/></g>
<g><path style="opacity:0.737" fill="#988184" d="M 37.5,34.5 C 37.2627,35.791 37.596,36.791 38.5,37.5C 37.791,38.404 36.791,38.7373 35.5,38.5C 34.5,38.5 33.5,38.5 32.5,38.5C 33.9142,36.9458 35.5808,35.6125 37.5,34.5 Z"/></g>
<g><path style="opacity:0.647" fill="#675d9f" d="M 30.5,38.5 C 30.0618,38.4346 29.7284,38.6012 29.5,39C 30.0989,40.6225 30.7656,42.1225 31.5,43.5C 31.5,44.5 31.5,45.5 31.5,46.5C 28.8447,45.5335 28.178,43.8668 29.5,41.5C 28.5754,40.4376 27.5754,40.4376 26.5,41.5C 26.6716,40.5084 26.3382,39.8417 25.5,39.5C 26.8786,37.4031 28.5453,37.0698 30.5,38.5 Z"/></g>
<g><path style="opacity:0.071" fill="#627a62" d="M 47.5,36.5 C 47.5,36.1667 47.5,35.8333 47.5,35.5C 48.5862,35.62 49.2528,36.2867 49.5,37.5C 48.846,38.8153 48.846,39.8153 49.5,40.5C 49.1667,41.1667 48.8333,41.8333 48.5,42.5C 46.8211,42.1077 45.1545,41.6077 43.5,41C 46.0972,40.2208 46.0972,39.7208 43.5,39.5C 45.0419,38.8365 46.7086,38.1698 48.5,37.5C 48.3764,36.8933 48.0431,36.56 47.5,36.5 Z"/></g>
<g><path style="opacity:1" fill="#464791" d="M 47.5,35.5 C 47.5,35.1667 47.5,34.8333 47.5,34.5C 48.5,34.5 49.5,34.5 50.5,34.5C 50.2525,36.8583 50.9192,38.8583 52.5,40.5C 51.8333,41.1667 51.1667,41.8333 50.5,42.5C 50.6716,41.5084 50.3382,40.8417 49.5,40.5C 48.846,39.8153 48.846,38.8153 49.5,37.5C 49.2528,36.2867 48.5862,35.62 47.5,35.5 Z"/></g>
<g><path style="opacity:0.741" fill="#8d967b" d="M 30.5,38.5 C 31.1667,38.5 31.8333,38.5 32.5,38.5C 33.5,38.5 34.5,38.5 35.5,38.5C 35.5,39.1667 35.5,39.8333 35.5,40.5C 35.5,41.1667 35.5,41.8333 35.5,42.5C 34.0689,42.1193 33.2355,41.1193 33,39.5C 32.5899,40.9007 32.0899,42.234 31.5,43.5C 30.7656,42.1225 30.0989,40.6225 29.5,39C 29.7284,38.6012 30.0618,38.4346 30.5,38.5 Z"/></g>
<g><path style="opacity:0.349" fill="#9e73a6" d="M 35.5,40.5 C 37.9726,40.0882 39.3059,41.0882 39.5,43.5C 38.8333,43.8333 38.1667,44.1667 37.5,44.5C 36.8333,43.8333 36.1667,43.1667 35.5,42.5C 35.5,41.8333 35.5,41.1667 35.5,40.5 Z"/></g>
<g><path style="opacity:1" fill="#593e8e" d="M 43.5,39.5 C 46.0972,39.7208 46.0972,40.2208 43.5,41C 45.1545,41.6077 46.8211,42.1077 48.5,42.5C 48.5,42.8333 48.5,43.1667 48.5,43.5C 46.0747,45.1194 44.0747,44.7861 42.5,42.5C 42.1667,42.5 41.8333,42.5 41.5,42.5C 41.427,40.9731 42.0937,39.9731 43.5,39.5 Z"/></g>
<g><path style="opacity:0.067" fill="#552d84" d="M 14.5,38.5 C 14.8417,39.3382 15.5084,39.6716 16.5,39.5C 16.5,39.8333 16.5,40.1667 16.5,40.5C 16.5,41.5 16.5,42.5 16.5,43.5C 15.8333,43.5 15.1667,43.5 14.5,43.5C 14.1667,42.8333 13.8333,42.1667 13.5,41.5C 13.2627,40.209 13.596,39.209 14.5,38.5 Z"/></g>
<g><path style="opacity:1" fill="#532f8d" d="M 19.5,39.5 C 20.1667,39.5 20.5,39.8333 20.5,40.5C 21.5,40.8333 22.1667,41.5 22.5,42.5C 20.9519,42.8212 20.2852,43.8212 20.5,45.5C 19.5,45.5 18.5,45.5 17.5,45.5C 17.5,45.1667 17.5,44.8333 17.5,44.5C 18.4778,44.189 19.1445,43.5223 19.5,42.5C 19.1543,41.3044 18.6543,41.3044 18,42.5C 17.5357,41.9056 17.369,41.2389 17.5,40.5C 18.1667,40.1667 18.8333,39.8333 19.5,39.5 Z"/></g>
<g><path style="opacity:0.353" fill="#8d3360" d="M 49.5,40.5 C 50.3382,40.8417 50.6716,41.5084 50.5,42.5C 50.3284,43.4916 50.6618,44.1583 51.5,44.5C 51.1583,45.3382 50.4916,45.6716 49.5,45.5C 49.6716,44.5084 49.3382,43.8417 48.5,43.5C 48.5,43.1667 48.5,42.8333 48.5,42.5C 48.8333,41.8333 49.1667,41.1667 49.5,40.5 Z"/></g>
<g><path style="opacity:0.741" fill="#90a17a" d="M 11.5,42.5 C 8.83333,42.8333 8.83333,43.1667 11.5,43.5C 10.8902,44.391 10.5569,45.391 10.5,46.5C 10.5,47.5 10.5,48.5 10.5,49.5C 9.60433,50.5063 8.93767,50.5063 8.5,49.5C 8.5,46.8333 8.5,44.1667 8.5,41.5C 9.79105,41.2627 10.791,41.596 11.5,42.5 Z"/></g>
<g><path style="opacity:0.624" fill="#8492a2" d="M 13.5,41.5 C 13.8333,42.1667 14.1667,42.8333 14.5,43.5C 13.5,44.8333 12.5,44.8333 11.5,43.5C 8.83333,43.1667 8.83333,42.8333 11.5,42.5C 12.1667,42.1667 12.8333,41.8333 13.5,41.5 Z"/></g>
<g><path style="opacity:0.576" fill="#6d7f50" d="M 16.5,40.5 C 16.8333,40.5 17.1667,40.5 17.5,40.5C 17.369,41.2389 17.5357,41.9056 18,42.5C 18.6543,41.3044 19.1543,41.3044 19.5,42.5C 19.1445,43.5223 18.4778,44.189 17.5,44.5C 17.5,43.8333 17.1667,43.5 16.5,43.5C 16.5,42.5 16.5,41.5 16.5,40.5 Z"/></g>
<g><path style="opacity:1" fill="#3b2d77" d="M 25.5,41.5 C 24.7659,42.7079 24.4326,44.0413 24.5,45.5C 24.1667,45.5 23.8333,45.5 23.5,45.5C 22.8902,44.609 22.5569,43.609 22.5,42.5C 23.1515,41.9094 23.8182,41.2427 24.5,40.5C 25.1067,40.6236 25.44,40.9569 25.5,41.5 Z"/></g>
<g><path style="opacity:0.914" fill="#a89055" d="M 52.5,40.5 C 52.8333,41.1667 53.1667,41.8333 53.5,42.5C 52.8333,43.1667 52.1667,43.8333 51.5,44.5C 50.6618,44.1583 50.3284,43.4916 50.5,42.5C 51.1667,41.8333 51.8333,41.1667 52.5,40.5 Z"/></g>
<g><path style="opacity:1" fill="#6945ab" d="M 41.5,42.5 C 41.8333,42.5 42.1667,42.5 42.5,42.5C 42.31,44.9589 43.31,46.6255 45.5,47.5C 44.8333,47.5 44.1667,47.5 43.5,47.5C 42.2719,46.6935 41.2719,45.6935 40.5,44.5C 39.7777,45.5511 38.7777,46.2178 37.5,46.5C 37.5,45.8333 37.5,45.1667 37.5,44.5C 38.1667,44.1667 38.8333,43.8333 39.5,43.5C 40.1667,43.1667 40.8333,42.8333 41.5,42.5 Z"/></g>
<g><path style="opacity:0.541" fill="#545cb0" d="M 53.5,42.5 C 54.4884,43.795 55.4884,45.1283 56.5,46.5C 55.5,46.5 54.5,46.5 53.5,46.5C 52.8333,45.8333 52.1667,45.1667 51.5,44.5C 52.1667,43.8333 52.8333,43.1667 53.5,42.5 Z"/></g>
<g><path style="opacity:1" fill="#6b2b8b" d="M 11.5,43.5 C 12.5,44.8333 13.5,44.8333 14.5,43.5C 14.5,44.5 14.5,45.5 14.5,46.5C 13.2946,47.6857 11.9613,47.6857 10.5,46.5C 10.5569,45.391 10.8902,44.391 11.5,43.5 Z"/></g>
<g><path style="opacity:0.918" fill="#b29947" d="M 14.5,43.5 C 15.1667,43.5 15.8333,43.5 16.5,43.5C 17.1667,43.5 17.5,43.8333 17.5,44.5C 17.5,44.8333 17.5,45.1667 17.5,45.5C 16.6618,45.8417 16.3284,46.5084 16.5,47.5C 15.8333,47.1667 15.1667,46.8333 14.5,46.5C 14.5,45.5 14.5,44.5 14.5,43.5 Z"/></g>
<g><path style="opacity:0.863" fill="#898885" d="M 42.5,42.5 C 44.0747,44.7861 46.0747,45.1194 48.5,43.5C 49.3382,43.8417 49.6716,44.5084 49.5,45.5C 48.3995,46.6049 47.7329,47.9382 47.5,49.5C 46.1667,49.5 45.5,48.8333 45.5,47.5C 43.31,46.6255 42.31,44.9589 42.5,42.5 Z"/></g>
<g><path style="opacity:0.694" fill="#5a6792" d="M 22.5,42.5 C 22.5569,43.609 22.8902,44.609 23.5,45.5C 23.6716,46.4916 23.3382,47.1583 22.5,47.5C 21.791,46.596 20.791,46.2627 19.5,46.5C 18.0755,48.0311 17.4088,47.6977 17.5,45.5C 18.5,45.5 19.5,45.5 20.5,45.5C 20.2852,43.8212 20.9519,42.8212 22.5,42.5 Z"/></g>
<g><path style="opacity:0.976" fill="#3e5fac" d="M 40.5,44.5 C 40.5979,46.5529 39.9313,48.2196 38.5,49.5C 38.1667,48.8333 37.8333,48.1667 37.5,47.5C 37.5,47.1667 37.5,46.8333 37.5,46.5C 38.7777,46.2178 39.7777,45.5511 40.5,44.5 Z"/></g>
<g><path style="opacity:1" fill="#602675" d="M 17.5,45.5 C 17.4088,47.6977 18.0755,48.0311 19.5,46.5C 19.2178,47.7777 18.5511,48.7777 17.5,49.5C 16.6618,49.1583 16.3284,48.4916 16.5,47.5C 16.3284,46.5084 16.6618,45.8417 17.5,45.5 Z"/></g>
<g><path style="opacity:0.969" fill="#709589" d="M 23.5,45.5 C 23.8333,45.5 24.1667,45.5 24.5,45.5C 25.8715,47.4773 25.5382,49.1439 23.5,50.5C 23.1667,50.5 22.8333,50.5 22.5,50.5C 23.8333,49.5 23.8333,48.5 22.5,47.5C 23.3382,47.1583 23.6716,46.4916 23.5,45.5 Z"/></g>
<g><path style="opacity:0.961" fill="#829871" d="M 31.5,43.5 C 33.2132,44.6354 33.8799,46.302 33.5,48.5C 32.391,48.5569 31.391,48.8902 30.5,49.5C 30.5569,48.391 30.8902,47.391 31.5,46.5C 31.5,45.5 31.5,44.5 31.5,43.5 Z"/></g>
<g><path style="opacity:0.761" fill="#8a838b" d="M 19.5,46.5 C 20.791,46.2627 21.791,46.596 22.5,47.5C 23.8333,48.5 23.8333,49.5 22.5,50.5C 21.8333,50.8333 21.1667,51.1667 20.5,51.5C 20.1667,51.5 19.8333,51.5 19.5,51.5C 19.1667,50.5 18.5,49.8333 17.5,49.5C 18.5511,48.7777 19.2178,47.7777 19.5,46.5 Z"/></g>
<g><path style="opacity:0.98" fill="#897a7a" d="M 37.5,47.5 C 37.8333,48.1667 38.1667,48.8333 38.5,49.5C 37.6618,49.8417 37.3284,50.5084 37.5,51.5C 36.8333,51.5 36.1667,51.5 35.5,51.5C 34.0242,49.2911 34.6909,47.9577 37.5,47.5 Z"/></g>
<g><path style="opacity:0.761" fill="#89767e" d="M 53.5,46.5 C 54.5,46.5 55.5,46.5 56.5,46.5C 56.1201,48.698 56.7868,50.3646 58.5,51.5C 57.7095,52.4013 56.7095,53.0679 55.5,53.5C 54.6814,51.2278 54.0147,48.8945 53.5,46.5 Z"/></g>
<g><path style="opacity:0.98" fill="#44877e" d="M 43.5,47.5 C 44.1667,47.5 44.8333,47.5 45.5,47.5C 45.5,48.8333 46.1667,49.5 47.5,49.5C 47.5,50.1667 47.5,50.8333 47.5,51.5C 46.609,50.8902 45.609,50.5569 44.5,50.5C 43.8902,49.609 43.5569,48.609 43.5,47.5 Z"/></g>
<g><path style="opacity:0.569" fill="#8f67a7" d="M 8.5,49.5 C 8.93767,50.5063 9.60433,50.5063 10.5,49.5C 9.43795,51.2341 9.43795,52.9008 10.5,54.5C 10.1667,54.5 9.83333,54.5 9.5,54.5C 8.59872,53.7095 7.93205,52.7095 7.5,51.5C 7.32842,50.5084 7.66175,49.8417 8.5,49.5 Z"/></g>
<g><path style="opacity:0.329" fill="#643f94" d="M 29.5,49.5 C 29.2178,50.7777 28.5511,51.7777 27.5,52.5C 27.6716,53.4916 27.3382,54.1583 26.5,54.5C 26.1667,53.8333 25.8333,53.1667 25.5,52.5C 25.5,51.5 25.5,50.5 25.5,49.5C 26.8333,49.5 28.1667,49.5 29.5,49.5 Z"/></g>
<g><path style="opacity:0.945" fill="#99666b" d="M 33.5,48.5 C 32.5353,51.3197 30.5353,52.6531 27.5,52.5C 28.5511,51.7777 29.2178,50.7777 29.5,49.5C 29.8333,49.5 30.1667,49.5 30.5,49.5C 31.391,48.8902 32.391,48.5569 33.5,48.5 Z"/></g>
<g><path style="opacity:0.702" fill="#736a96" d="M 22.5,50.5 C 22.8333,50.5 23.1667,50.5 23.5,50.5C 23.5,51.8333 24.1667,52.5 25.5,52.5C 25.8333,53.1667 26.1667,53.8333 26.5,54.5C 25.5,55.8333 24.5,55.8333 23.5,54.5C 22.6935,53.2719 21.6935,52.2719 20.5,51.5C 21.1667,51.1667 21.8333,50.8333 22.5,50.5 Z"/></g>
<g><path style="opacity:1" fill="#28218d" d="M 39.5,51.5 C 39.8333,51.5 40.1667,51.5 40.5,51.5C 41.5,51.5 42.5,51.5 43.5,51.5C 43.1667,52.5 42.5,53.1667 41.5,53.5C 40.8333,53.5 40.1667,53.5 39.5,53.5C 39.5,52.8333 39.5,52.1667 39.5,51.5 Z"/></g>
<g><path style="opacity:0.675" fill="#616796" d="M 6.5,51.5 C 6.44312,52.609 6.10978,53.609 5.5,54.5C 5.5,54.8333 5.5,55.1667 5.5,55.5C 4.50838,55.3284 3.84171,55.6618 3.5,56.5C 2.17891,53.7647 3.17891,52.0981 6.5,51.5 Z"/></g>
<g><path style="opacity:0.957" fill="#83a38a" d="M 6.5,51.5 C 6.83333,51.5 7.16667,51.5 7.5,51.5C 7.93205,52.7095 8.59872,53.7095 9.5,54.5C 9.5,55.1667 9.16667,55.5 8.5,55.5C 7.60895,54.8902 6.60895,54.5569 5.5,54.5C 6.10978,53.609 6.44312,52.609 6.5,51.5 Z"/></g>
<g><path style="opacity:0.576" fill="#77794a" d="M 19.5,51.5 C 19.8333,51.5 20.1667,51.5 20.5,51.5C 21.6935,52.2719 22.6935,53.2719 23.5,54.5C 22.0357,53.5946 20.7024,53.5946 19.5,54.5C 19.1583,53.6618 18.4916,53.3284 17.5,53.5C 17.8333,52.5 18.5,51.8333 19.5,51.5 Z"/></g>
<g><path style="opacity:0.471" fill="#78449b" d="M 40.5,51.5 C 41.5676,50.5655 42.901,50.2322 44.5,50.5C 45.609,50.5569 46.609,50.8902 47.5,51.5C 47.5,51.8333 47.5,52.1667 47.5,52.5C 47.0618,52.4346 46.7284,52.6012 46.5,53C 47.756,53.4169 48.4226,54.2502 48.5,55.5C 47.209,55.7373 46.209,55.404 45.5,54.5C 45.7148,52.8212 45.0481,51.8212 43.5,51.5C 42.5,51.5 41.5,51.5 40.5,51.5 Z"/></g>
<g><path style="opacity:1" fill="#43408f" d="M 58.5,51.5 C 59.4013,52.2905 60.0679,53.2905 60.5,54.5C 59.1667,54.5 58.5,55.1667 58.5,56.5C 58.1667,56.5 57.8333,56.5 57.5,56.5C 57.5,55.8333 57.1667,55.5 56.5,55.5C 56.1667,54.8333 55.8333,54.1667 55.5,53.5C 56.7095,53.0679 57.7095,52.4013 58.5,51.5 Z"/></g>
<g><path style="opacity:1" fill="#814da0" d="M 17.5,53.5 C 18.4916,53.3284 19.1583,53.6618 19.5,54.5C 17.364,55.6528 15.364,56.9862 13.5,58.5C 12.391,58.4431 11.391,58.1098 10.5,57.5C 11.1667,56.8333 11.8333,56.1667 12.5,55.5C 13.7804,54.0687 15.4471,53.4021 17.5,53.5 Z"/></g>
<g><path style="opacity:0.141" fill="#6d61a9" d="M 35.5,51.5 C 36.1667,51.5 36.8333,51.5 37.5,51.5C 38.1667,51.5 38.8333,51.5 39.5,51.5C 39.5,52.1667 39.5,52.8333 39.5,53.5C 38.2921,54.2341 36.9587,54.5674 35.5,54.5C 35.5,53.5 35.5,52.5 35.5,51.5 Z"/></g>
<g><path style="opacity:0.91" fill="#c395a3" d="M 43.5,51.5 C 45.0481,51.8212 45.7148,52.8212 45.5,54.5C 43.901,54.7678 42.5676,54.4345 41.5,53.5C 42.5,53.1667 43.1667,52.5 43.5,51.5 Z"/></g>
<g><path style="opacity:0.945" fill="#965c70" d="M 47.5,52.5 C 49.153,52.6596 50.4863,53.3263 51.5,54.5C 50.5084,54.3284 49.8417,54.6618 49.5,55.5C 49.1667,55.5 48.8333,55.5 48.5,55.5C 48.4226,54.2502 47.756,53.4169 46.5,53C 46.7284,52.6012 47.0618,52.4346 47.5,52.5 Z"/></g>
<g><path style="opacity:0.914" fill="#a99f87" d="M 51.5,54.5 C 52.1667,54.5 52.8333,54.5 53.5,54.5C 53.1667,55.1667 52.8333,55.8333 52.5,56.5C 51.8333,57.1667 51.1667,57.8333 50.5,58.5C 50.4431,57.391 50.1098,56.391 49.5,55.5C 49.8417,54.6618 50.5084,54.3284 51.5,54.5 Z"/></g>
<g><path style="opacity:0.867" fill="#929f5e" d="M 55.5,53.5 C 55.8333,54.1667 56.1667,54.8333 56.5,55.5C 55.5,56.1667 54.5,56.8333 53.5,57.5C 53.1667,57.5 52.8333,57.5 52.5,57.5C 52.5,57.1667 52.5,56.8333 52.5,56.5C 52.8333,55.8333 53.1667,55.1667 53.5,54.5C 53.8417,53.6618 54.5084,53.3284 55.5,53.5 Z"/></g>
<g><path style="opacity:0.925" fill="#8e8065" d="M 60.5,54.5 C 61.8852,55.9473 61.5518,56.9473 59.5,57.5C 59.5,56.8333 59.1667,56.5 58.5,56.5C 58.5,55.1667 59.1667,54.5 60.5,54.5 Z"/></g>
<g><path style="opacity:0.988" fill="#7d7daa" d="M 9.5,54.5 C 9.83333,54.5 10.1667,54.5 10.5,54.5C 11.1667,54.8333 11.8333,55.1667 12.5,55.5C 11.8333,56.1667 11.1667,56.8333 10.5,57.5C 9.5,57.1667 8.83333,56.5 8.5,55.5C 9.16667,55.5 9.5,55.1667 9.5,54.5 Z"/></g>
<g><path style="opacity:0.855" fill="#90a073" d="M 5.5,55.5 C 6.83333,56.1667 7.83333,57.1667 8.5,58.5C 7.5,58.5 6.5,58.5 5.5,58.5C 4.5,58.1667 3.83333,57.5 3.5,56.5C 3.84171,55.6618 4.50838,55.3284 5.5,55.5 Z"/></g>
<g><path style="opacity:0.38" fill="#686197" d="M 57.5,56.5 C 57.8333,56.5 58.1667,56.5 58.5,56.5C 59.1667,56.5 59.5,56.8333 59.5,57.5C 58.8333,58.8333 57.8333,59.8333 56.5,60.5C 56.1667,59.8333 55.8333,59.1667 55.5,58.5C 55.8333,57.5 56.5,56.8333 57.5,56.5 Z"/></g>
<g><path style="opacity:0.749" fill="#683bbc" d="M 52.5,56.5 C 52.5,56.8333 52.5,57.1667 52.5,57.5C 52.7329,59.0618 53.3995,60.3951 54.5,61.5C 52.5956,61.2624 51.2623,60.2624 50.5,58.5C 51.1667,57.8333 51.8333,57.1667 52.5,56.5 Z"/></g>
<g><path style="opacity:0.957" fill="#75729a" d="M 10.5,57.5 C 11.391,58.1098 12.391,58.4431 13.5,58.5C 10.6291,63.4469 7.96241,63.4469 5.5,58.5C 6.5,58.5 7.5,58.5 8.5,58.5C 9.49162,58.6716 10.1583,58.3382 10.5,57.5 Z"/></g>
<g><path style="opacity:0.984" fill="#977a56" d="M 52.5,57.5 C 52.8333,57.5 53.1667,57.5 53.5,57.5C 53.8417,58.3382 54.5084,58.6716 55.5,58.5C 55.8333,59.1667 56.1667,59.8333 56.5,60.5C 55.8333,60.8333 55.1667,61.1667 54.5,61.5C 53.3995,60.3951 52.7329,59.0618 52.5,57.5 Z"/></g>
</svg>
